<?xml version="1.0" encoding="UTF-8" standalone="no"?>
<svg xmlns="http://www.w3.org/2000/svg" width="256" height="256">
<path id="Shape" fill="none" stroke="black" stroke-width="1"
d="M 368.00,0.00
   C 368.00,0.00 128.00,0.00 128.00,0.00
   C 128.00,0.00 128.00,0.00 128.00,0.00
   C 128.00,0.00 128.00,0.00 128.00,0.00
   C 128.00,0.00 128.00,0.00 128.00,0.00
   C 128.00,0.00 128.00,0.00 128.00,0.00
   C 128.00,0.00 0.00,0.00 0.00,128.00
   C 0.00,256.00 128.00,256.00 128.00,256.00
   C 128.00,256.00 112.00,256.00 128.00,256.00
   C 144.00,256.00 368.00,256.00 368.00,256.00
   C 368.00,256.00 368.00,0.00 368.00,0.00
   "/>
</svg>
